<svg xmlns="http://www.w3.org/2000/svg"  viewBox="0 0 48 48" width="48px" height="48px" baseProfile="basic"><linearGradient id="-ztAVVbbGMczRjvz_p49la" x1="13.967" x2="28.252" y1="5.979" y2="44.98" gradientUnits="userSpaceOnUse"><stop offset="0" stop-color="#28afea"/><stop offset="1" stop-color="#047ed6"/></linearGradient><path fill="url(#-ztAVVbbGMczRjvz_p49la)" d="M3.875,34c-0.77,0-1.251,0.834-0.866,1.501l2.903,5.018l0.001,0.001	C6.656,41.991,8.18,43,9.94,43h0.003l0,0h23.298c0.77,0,1.251-0.833,0.866-1.5l-4.04-7c-0.179-0.309-0.509-0.5-0.866-0.5H3.875z M45.859,34.341c0-0.872-0.257-1.683-0.697-2.364L30.977,7.319C30.245,5.94,28.794,5,27.124,5H21.36c-0.77,0-1.251,0.833-0.866,1.5	l20.178,34.962c0.385,0.667,1.347,0.667,1.732,0l2.588-4.482C45.673,35.835,45.859,35.328,45.859,34.341z M24.972,26.5	l-8.061-13.962c-0.385-0.667-1.347-0.667-1.732,0L7.118,26.5C6.733,27.167,7.214,28,7.984,28h16.122	C24.876,28,25.357,27.167,24.972,26.5z"/></svg>